<svg xmlns="http://www.w3.org/2000/svg" xmlns:xlink="http://www.w3.org/1999/xlink" width="1129.263" height="1080.937" viewBox="0 0 1129.263 1080.937">
  <defs>
    <linearGradient id="linear-gradient" x1="-0.004" y1="0.548" x2="1.298" y2="0.347" gradientUnits="objectBoundingBox">
      <stop offset="0" stop-color="#fbc1ff"/>
      <stop offset="1" stop-color="#5e9ef1"/>
      <stop offset="1" stop-color="#b8cffc"/>
    </linearGradient>
    <filter id="Union_2" x="0" y="0" width="1129.263" height="1080.937" filterUnits="userSpaceOnUse">
      <feOffset dx="6" dy="25" input="SourceAlpha"/>
      <feGaussianBlur stdDeviation="16.5" result="blur"/>
      <feFlood flood-opacity="0.161"/>
      <feComposite operator="in" in2="blur"/>
      <feComposite in="SourceGraphic"/>
    </filter>
  </defs>
  <g id="Metaball" transform="translate(-195.057 -235.963)">
    <g transform="matrix(1, 0, 0, 1, 195.06, 235.96)" filter="url(#Union_2)">
      <path id="Union_2-2" data-name="Union 2" d="M-4.319,677.231A148.431,148.431,0,0,1,10.8,618.509c79.977-171.214,91.259-196.221,50.2-410.578a166.34,166.34,0,0,1-3.419-42.3C61.532,77.4,131.251,2.672,213.295-1.286c59.868-2.888,109.753,32.7,130.807,86.428C425.643,280.661,444.51,296.709,617.556,376.878c48.38,20.977,80.518,72.427,77.746,134.21-3.74,83.368-69.618,153.986-147.144,157.726a130.9,130.9,0,0,1-14.68-.11c-187.957-9.745-208.064,2.237-350.282,107.95C162.751,792.3,138.369,802.06,112.5,803.309,44.714,806.579-7.59,750.132-4.319,677.231Z" transform="matrix(0.44, 0.9, -0.9, 0.44, 767.59, 29.15)" fill="url(#linear-gradient)"/>
    </g>
  </g>
</svg>
