<svg xmlns="http://www.w3.org/2000/svg" xmlns:xlink="http://www.w3.org/1999/xlink" width="185" height="185" viewBox="0 0 185 185"><defs><linearGradient id="a" x1="0.89" y1="0.175" x2="0.114" y2="0.875" gradientUnits="objectBoundingBox"><stop offset="0" stop-color="#f1e5ff"/><stop offset="1" stop-color="#ffc8ff"/></linearGradient><linearGradient id="b" x1="0.5" y1="1.43" x2="0.5" y2="-0.551" gradientUnits="objectBoundingBox"><stop offset="0" stop-color="#e593f6"/><stop offset="1" stop-color="#a6b3fb"/></linearGradient><linearGradient id="c" x1="0.5" y1="1.43" x2="0.5" y2="-0.551" gradientUnits="objectBoundingBox"><stop offset="0" stop-color="#d222f6"/><stop offset="1" stop-color="#71ecff"/></linearGradient></defs><g transform="translate(-500 -153)"><circle cx="92.5" cy="92.5" r="92.5" transform="translate(500 153)" fill="url(#a)"/><g transform="translate(532.5 185.5)" opacity="0.6"><g stroke="rgba(0,0,0,0)" stroke-width="1" opacity="0" fill="url(#b)"><rect width="120" height="120" stroke="none"/><rect x="0.5" y="0.5" width="119" height="119" fill="none"/></g><path d="M63.577,85.528H13.368V15.917H63.577M48.036,100.445H28.909V95.472H48.036M57.6,1H19.345C11.423,1,5,7.678,5,15.917V95.472c0,8.238,6.423,14.917,14.345,14.917H57.6c7.923,0,14.345-6.678,14.345-14.917V15.917C71.945,7.678,65.522,1,57.6,1Z" transform="translate(21.528 4.306)" fill="url(#c)"/></g></g></svg>