<svg xmlns="http://www.w3.org/2000/svg" xmlns:xlink="http://www.w3.org/1999/xlink" width="185" height="185" viewBox="0 0 185 185"><defs><linearGradient id="a" x1="0.89" y1="0.175" x2="0.114" y2="0.875" gradientUnits="objectBoundingBox"><stop offset="0" stop-color="#f1e5ff"/><stop offset="1" stop-color="#ffc8ff"/></linearGradient><linearGradient id="b" x1="0.904" y1="0.098" x2="0.151" y2="1" gradientUnits="objectBoundingBox"><stop offset="0" stop-color="#ff4eed"/><stop offset="1" stop-color="#34c1ff"/></linearGradient></defs><g transform="translate(-213 -153)"><circle cx="92.5" cy="92.5" r="92.5" transform="translate(213 153)" fill="url(#a)"/><g transform="translate(245.5 185.5)" opacity="0.6"><g stroke="rgba(0,0,0,0)" stroke-width="1" opacity="0" fill="url(#b)"><rect width="120" height="120" stroke="none"/><rect x="0.5" y="0.5" width="119" height="119" fill="none"/></g><path d="M94.287,50.1h14.729v9.82H94.287V50.1M1,50.1H15.729v9.82H1V50.1M59.918,1V15.729H50.1V1h9.82M20.246,13.275,30.7,23.782,23.732,30.7,13.275,20.3l6.972-7.021M79.312,23.732,89.72,13.275,96.741,20.3,86.284,30.7l-6.972-6.972m-24.3,1.817a29.471,29.471,0,0,1,14.729,54.99v8.838a4.91,4.91,0,0,1-4.91,4.91H45.188a4.91,4.91,0,0,1-4.91-4.91V80.539a29.471,29.471,0,0,1,14.729-54.99M64.828,99.2v4.91a4.91,4.91,0,0,1-4.91,4.91H50.1a4.91,4.91,0,0,1-4.91-4.91V99.2H64.828M50.1,84.467h9.82V74.009a19.639,19.639,0,1,0-9.82,0Z" transform="translate(4.992 4.992)" fill="url(#b)"/></g></g></svg>