<svg xmlns="http://www.w3.org/2000/svg" xmlns:xlink="http://www.w3.org/1999/xlink" width="185" height="185" viewBox="0 0 185 185"><defs><linearGradient id="a" x1="0.89" y1="0.175" x2="0.114" y2="0.875" gradientUnits="objectBoundingBox"><stop offset="0" stop-color="#f1e5ff"/><stop offset="1" stop-color="#ffc8ff"/></linearGradient><linearGradient id="b" x1="0.5" x2="0.5" y2="1" gradientUnits="objectBoundingBox"><stop offset="0" stop-color="#f565ff"/><stop offset="1" stop-color="#8adbff"/></linearGradient></defs><g transform="translate(-787 -153)"><circle cx="92.5" cy="92.5" r="92.5" transform="translate(787 153)" fill="url(#a)"/><g transform="translate(819.5 185.5)" opacity="0.6"><g stroke="rgba(0,0,0,0)" stroke-width="1" opacity="0"><rect width="120" height="120" stroke="none"/><rect x="0.5" y="0.5" width="119" height="119" fill="none"/></g><path d="M95,72.182H30a19.487,19.487,0,1,1,0-38.961h3.55A27.5,27.5,0,0,1,60,13.74c15.188,0,27.5,11.992,27.5,26.786v2.435H95a14.616,14.616,0,1,1,0,29.221m1.75-38.815C93.35,16.614,78.2,4,60,4A37.661,37.661,0,0,0,26.75,23.627C11.7,25.234,0,37.6,0,52.7,0,68.84,13.431,81.923,30,81.923H95c13.807,0,25-10.9,25-24.351C120,44.715,109.75,34.293,96.75,33.367Z" transform="translate(0 17.039)" fill="url(#b)"/></g></g></svg>